# xmcd
#
# Track frame offsets:
#	150
#	21633
#	43389
#	64491
#	83725
#	106347
#	132268
#	147809
#	189607
#	211957
#
# Disc length: 3344 seconds
#
# Revision: 3
# Processed by: cddbd v1.5.2PL0 Copyright (c) Steve Scherf et al.
# Submitted via: audiograbber 1.83.01
#
DISCID=990d0e0a
DTITLE=Marillion - Live From Cadogan Hall [CD 2)
DYEAR=2011
DGENRE=Progressive Rock
TTITLE0=No One Can [live]
TTITLE1=Beautiful [live]
TTITLE2=This Train Is My Life [live]
TTITLE3=You're Gone [live]
TTITLE4=80 Days [live]
TTITLE5=Gazpacho [live]
TTITLE6=The Answering Machine [live]
TTITLE7=Estonia [live]
TTITLE8=Easter [live]
TTITLE9=Three Minute Boy [live]
EXTD=
EXTT0=
EXTT1=
EXTT2=
EXTT3=
EXTT4=
EXTT5=
EXTT6=
EXTT7=
EXTT8=
EXTT9=
PLAYORDER=
